# xmcd
#
# Track frame offsets: 
#        150
#        16374
#        30743
#        45266
#        57919
#        71329
#        86079
#        101370
#        118518
#        130750
#        149021
#        165324
#        184167
#
# Disc length: 2711 seconds
#
# Revision: 1
# Processed by: cddbd v1.5.2PL0 Copyright (c) Steve Scherf et al.
# Submitted via: ExactAudioCopy v0.99pb5
#
DISCID=a60a950d
DTITLE=Kristin Chenoweth - Some Lessons Learned
DYEAR=2011
DGENRE=Country
TTITLE0=I Was Here
TTITLE1=I Want Somebody (Bitch About)
TTITLE2=Fathers And Daughters
TTITLE3=What Would Dolly Do
TTITLE4=God And Me
TTITLE5=Change
TTITLE6=What More Do You Want
TTITLE7=Wreck You
TTITLE8=I Didn't
TTITLE9=Borrowed Angels
TTITLE10=What If We Never
TTITLE11=Mine To Love
TTITLE12=Lessons Learned
EXTD=
EXTT0=
EXTT1=
EXTT2=
EXTT3=
EXTT4=
EXTT5=
EXTT6=
EXTT7=
EXTT8=
EXTT9=
EXTT10=
EXTT11=
EXTT12=
PLAYORDER=
